HIERARCHY
ROOT Hips
{
	OFFSET 0.000000 0.000000 0.000000
	CHANNELS 6 Xposition Yposition Zposition Zrotation Yrotation Xrotation 
	JOINT LowerBack
	{
		OFFSET 0.000000 0.000000 0.000000
		CHANNELS 3 Zrotation Yrotation Xrotation
		JOINT Spine
		{
			OFFSET 0.028270 2.035590 -0.193380
			CHANNELS 3 Zrotation Yrotation Xrotation
			JOINT Spine1
			{
				OFFSET 0.056720 2.048850 -0.042750
				CHANNELS 3 Zrotation Yrotation Xrotation
				JOINT Neck
				{
					OFFSET 0.000000 0.000000 0.000000
					CHANNELS 3 Zrotation Yrotation Xrotation
					JOINT Neck1
					{
						OFFSET -0.054170 1.746240 0.172020
						CHANNELS 3 Zrotation Yrotation Xrotation
						JOINT Head
						{
							OFFSET 0.104070 1.761360 -0.123970
							CHANNELS 3 Zrotation Yrotation Xrotation
							End Site
							{
								OFFSET 0.000000 0.000000 0.000000
							}
						}
					}
				}
				JOINT LeftShoulder
				{
					OFFSET 0.000000 0.000000 0.000000
					CHANNELS 3 Zrotation Yrotation Xrotation
					JOINT LeftArm
					{
						OFFSET 3.362410 1.200890 -0.311210
						CHANNELS 3 Zrotation Yrotation Xrotation
						JOINT LeftForeArm
						{
							OFFSET 4.983000 -0.000000 -0.000000
							CHANNELS 3 Zrotation Yrotation Xrotation
							JOINT LeftHand
							{
								OFFSET 3.483560 -0.000000 -0.000000
								CHANNELS 3 Zrotation Yrotation Xrotation
								JOINT LeftFingerBase
								{
									OFFSET 0.000000 0.000000 0.000000
									CHANNELS 3 Zrotation Yrotation Xrotation
									JOINT LeftHandIndex1
									{
										OFFSET 0.715260 -0.000000 -0.000000
										CHANNELS 3 Zrotation Yrotation Xrotation
										End Site
										{
											OFFSET 0.000000 0.000000 0.000000
										}
									}
								}
								JOINT LThumb
								{
									OFFSET 0.000000 0.000000 0.000000
									CHANNELS 3 Zrotation Yrotation Xrotation
									End Site
									{
										OFFSET 0.000000 0.000000 0.000000
									}
								}
							}
						}
					}
				}
				JOINT RightShoulder
				{
					OFFSET 0.000000 0.000000 0.000000
					CHANNELS 3 Zrotation Yrotation Xrotation
					JOINT RightArm
					{
						OFFSET -3.136600 1.374050 -0.404650
						CHANNELS 3 Zrotation Yrotation Xrotation
						JOINT RightForeArm
						{
							OFFSET -5.241900 -0.000000 -0.000000
							CHANNELS 3 Zrotation Yrotation Xrotation
							JOINT RightHand
							{
								OFFSET -3.444170 -0.000000 -0.000000
								CHANNELS 3 Zrotation Yrotation Xrotation
								JOINT RightFingerBase
								{
									OFFSET 0.000000 0.000000 0.000000
									CHANNELS 3 Zrotation Yrotation Xrotation
									JOINT RightHandIndex1
									{
										OFFSET -0.622530 -0.000000 -0.000000
										CHANNELS 3 Zrotation Yrotation Xrotation
										End Site
										{
											OFFSET 0.000000 0.000000 0.000000
										}
									}
								}
								JOINT RThumb
								{
									OFFSET 0.000000 0.000000 0.000000
									CHANNELS 3 Zrotation Yrotation Xrotation
									End Site
									{
										OFFSET 0.000000 0.000000 0.000000
									}
								}
							}
						}
					}
				}
			}
		}
	}
}
}
MOTION
Frames: 12
Frame Time: 0.008333
2.077113 16.603159 5.481311 6.003180 10.624919 7.139462 -4.006570 0.292495 -4.289342 -1.540563 0.411786 -3.340007 -5.743950 0.321069 1.734600 8.137874 -8.106726 -7.336121 -2.731694 -0.218256 0.098328 0.000000 0.000000 0.000000 -7.742779 23.200184 0.770614 -76.782632 22.368019 17.959372 -2.670343 -32.026614 -0.008303 -4.580825 3.498215 -0.144210 0.000898 -0.097088 -0.000000 0.000000 0.000000 0.000000 0.000000 0.000000 0.000000 12.131062 -2.340969 -1.614428 71.289486 23.870648 29.509000 2.013586 47.244155 0.015224 2.791723 7.284768 0.181169 0.033940 -0.190429 -0.000000 0.000000 0.000000 0.000000 0.000000 0.000000 0.000000 
2.112519 16.605145 5.641303 5.956735 9.557808 6.893334 -4.130752 0.306017 -4.308828 -1.579229 0.435588 -3.348074 -5.792189 0.346858 1.726082 8.193339 -8.108686 -7.352906 -2.750773 -0.219666 0.093336 0.000000 0.000000 0.000000 -7.679195 23.220143 0.746214 -76.496913 22.253793 17.957144 -2.690712 -31.727606 -0.008519 -4.572937 3.549326 -0.146010 -0.000526 -0.098874 -0.000000 0.000000 0.000000 0.000000 0.000000 0.000000 0.000000 12.273428 -2.328997 -1.612155 71.751996 23.274721 29.455873 2.059389 46.479084 0.015393 2.845511 7.279289 0.184376 0.035339 -0.186500 -0.000000 0.000000 0.000000 0.000000 0.000000 0.000000 0.000000 
2.146082 16.608510 5.800700 5.947665 8.492548 6.632911 -4.280366 0.311436 -4.300814 -1.620996 0.454440 -3.352163 -5.835107 0.367701 1.716135 8.241679 -8.111616 -7.371340 -2.768408 -0.220910 0.087732 0.000000 0.000000 0.000000 -7.608894 23.218498 0.725176 -76.198492 22.101014 17.887465 -2.717588 -31.383935 -0.008754 -4.566410 3.599292 -0.147809 -0.002310 -0.100604 0.000000 0.000000 0.000000 0.000000 0.000000 0.000000 0.000000 12.400994 -2.322630 -1.607241 72.236050 22.649145 29.325306 2.109188 45.638672 0.015561 2.905838 7.269578 0.187779 0.036774 -0.182304 -0.000000 0.000000 0.000000 0.000000 0.000000 0.000000 0.000000 
2.177867 16.613114 5.958783 5.975888 7.436270 6.368768 -4.454016 0.307241 -4.270863 -1.665376 0.466409 -3.353200 -5.872207 0.381535 1.705243 8.282157 -8.107752 -7.392663 -2.784820 -0.221988 0.081201 0.000000 0.000000 0.000000 -7.532001 23.199188 0.709359 -75.889749 21.898132 17.755477 -2.750763 -30.989105 -0.008991 -4.553395 3.643311 -0.149107 -0.004506 -0.102179 0.000000 0.000000 0.000000 0.000000 0.000000 0.000000 0.000000 12.511903 -2.313640 -1.599572 72.734954 21.993395 29.094262 2.162508 44.731400 0.015722 2.973752 7.251792 0.191582 0.038196 -0.177884 -0.000000 0.000000 0.000000 0.000000 0.000000 0.000000 0.000000 
2.207985 16.618750 6.114891 6.038412 6.397937 6.110097 -4.648022 0.291749 -4.224035 -1.711423 0.469198 -3.352001 -5.903298 0.385951 1.693271 8.315133 -8.096854 -7.418097 -2.800547 -0.222934 0.073477 0.000000 0.000000 0.000000 -7.451964 23.155608 0.699568 -75.572814 21.644775 17.554700 -2.789968 -30.546261 -0.009211 -4.528300 3.679550 -0.149700 -0.007121 -0.103532 0.000000 0.000000 0.000000 0.000000 0.000000 0.000000 0.000000 12.608513 -2.302574 -1.587426 73.238128 21.318189 28.757888 2.219033 43.761818 0.015866 3.043028 7.227069 0.195183 0.039678 -0.173299 -0.000000 0.000000 0.000000 0.000000 0.000000 0.000000 0.000000 
2.236589 16.625085 6.268344 6.129901 5.387543 5.864013 -4.856644 0.263236 -4.163635 -1.757772 0.460365 -3.348919 -5.928377 0.378428 1.680331 8.341254 -8.076895 -7.448394 -2.816120 -0.223785 0.064394 0.000000 0.000000 0.000000 -7.369111 23.083533 0.696888 -75.250394 21.338409 17.287871 -2.834699 -30.055637 -0.009400 -4.485430 3.706481 -0.149292 -0.010159 -0.104594 0.000000 0.000000 0.000000 0.000000 0.000000 0.000000 0.000000 12.692874 -2.288251 -1.569768 73.735173 20.631191 28.309440 2.278183 42.738082 0.015989 3.108900 7.196842 0.198484 0.041252 -0.168619 -0.000000 0.000000 0.000000 0.000000 0.000000 0.000000 0.000000 
2.263879 16.631774 6.418636 6.244528 4.415720 5.634391 -5.074432 0.220115 -4.090642 -1.803167 0.437704 -3.343849 -5.947652 0.356723 1.666520 8.361719 -8.047062 -7.483852 -2.832061 -0.224577 0.053887 0.000000 0.000000 0.000000 -7.281487 22.978086 0.702188 -74.925268 20.978448 16.960579 -2.884395 -29.518764 -0.009543 -4.420873 3.724058 -0.147681 -0.013607 -0.105308 0.000000 0.000000 0.000000 0.000000 0.000000 0.000000 0.000000 12.767928 -2.271001 -1.545700 74.215593 19.941058 27.747292 2.339246 41.668585 0.016086 3.165896 7.163740 0.200983 0.042949 -0.163913 -0.000000 0.000000 0.000000 0.000000 0.000000 0.000000 0.000000 
2.290086 16.638453 6.565423 6.376983 3.489686 5.424004 -5.296437 0.161680 -4.006115 -1.846591 0.399966 -3.336679 -5.961459 0.319570 1.652025 8.377947 -8.007875 -7.524014 -2.848747 -0.225349 0.042089 0.000000 0.000000 0.000000 -7.185784 22.834391 0.715825 -74.599573 20.566286 16.581499 -2.938461 -28.937554 -0.009631 -4.332796 3.733914 -0.144967 -0.017434 -0.105643 -0.000000 0.000000 0.000000 0.000000 0.000000 0.000000 0.000000 12.836480 -2.252593 -1.514675 74.670376 19.255096 27.073176 2.401507 40.561840 0.016153 3.208943 7.131493 0.202582 0.044794 -0.159252 -0.000000 0.000000 0.000000 0.000000 0.000000 0.000000 0.000000 
2.315435 16.644849 6.708455 6.520669 2.612895 5.234771 -5.515941 0.088757 -3.912002 -1.886931 0.347309 -3.327447 -5.970542 0.267153 1.637154 8.391480 -7.961045 -7.567850 -2.866651 -0.226153 0.029284 0.000000 0.000000 0.000000 -7.079142 22.648734 0.737402 -74.273595 20.104620 16.160954 -2.996231 -28.315227 -0.009664 -4.222153 3.739460 -0.141350 -0.021592 -0.105588 -0.000000 0.000000 0.000000 0.000000 0.000000 0.000000 0.000000 12.902335 -2.235575 -1.476359 75.090532 18.580530 26.293110 2.464338 39.425718 0.016191 3.233362 7.104241 0.203180 0.046812 -0.154697 -0.000000 0.000000 0.000000 0.000000 0.000000 0.000000 0.000000 
2.340273 16.650829 6.847705 6.666559 1.786259 5.065949 -5.724029 0.002987 -3.809028 -1.922789 0.280615 -3.315904 -5.975939 0.200451 1.622658 8.403415 -7.906176 -7.613842 -2.886129 -0.227035 0.015855 0.000000 0.000000 0.000000 -6.958655 22.423754 0.766302 -73.945179 19.592058 15.717221 -3.056926 -27.651285 -0.009647 -4.090799 3.744400 -0.136932 -0.026037 -0.105139 -0.000000 0.000000 0.000000 0.000000 0.000000 0.000000 0.000000 12.967958 -2.219946 -1.431403 75.468216 17.918765 25.407994 2.527182 38.269059 0.016204 3.237830 7.085246 0.202578 0.048977 -0.150285 -0.000000 0.000000 0.000000 0.000000 0.000000 0.000000 0.000000 
2.364945 16.656466 6.983269 6.805568 1.009654 4.912944 -5.910812 -0.093022 -3.696180 -1.952719 0.201728 -3.301793 -5.978995 0.121463 1.608162 8.414789 -7.850498 -7.659671 -2.907709 -0.228072 0.002441 0.000000 0.000000 0.000000 -6.826678 22.152043 0.800370 -73.610380 19.039668 15.252813 -3.119868 -26.955535 -0.009594 -3.944257 3.755291 -0.132112 -0.030693 -0.104339 0.000000 0.000000 0.000000 0.000000 0.000000 0.000000 0.000000 13.038165 -2.214078 -1.379392 75.796034 17.276739 24.433026 2.589915 37.093960 0.016195 3.217296 7.079290 0.200875 0.051342 -0.146034 -0.000000 0.000000 0.000000 0.000000 0.000000 0.000000 0.000000 
2.389740 16.661949 7.115426 6.930109 0.281128 4.769928 -6.067794 -0.196847 -3.571463 -1.975527 0.112480 -3.284434 -5.980812 0.032211 1.594870 8.425814 -7.792026 -7.703097 -2.931572 -0.229295 -0.010425 0.000000 0.000000 0.000000 -6.681508 21.843897 0.838446 -73.263753 18.441460 14.788853 -3.184388 -26.224807 -0.009517 -3.785599 3.775432 -0.127190 -0.035533 -0.103190 0.000000 0.000000 0.000000 0.000000 0.000000 0.000000 0.000000 13.113895 -2.215931 -1.322254 76.070069 16.649900 23.364295 2.652253 35.907104 0.016169 3.174091 7.087179 0.198072 0.053836 -0.141939 -0.000000 0.000000 0.000000 0.000000 0.000000 0.000000 0.000000 
